<?xml version="1.0" encoding="utf-8"?>
<!-- Generator: Adobe Illustrator 21.0.0, SVG Export Plug-In . SVG Version: 6.00 Build 0)  -->
<svg version="1.1" id="Layer_1" xmlns="http://www.w3.org/2000/svg" xmlns:xlink="http://www.w3.org/1999/xlink" x="0px" y="0px"
	 viewBox="0 0 100 100" style="enable-background:new 0 0 100 100;" xml:space="preserve">
<style type="text/css">
	.st0{fill:#D7F9F8;}
	.st1{fill:#4E2E28;}
	.st2{clip-path:url(#SVGID_2_);}
	.st3{clip-path:url(#SVGID_4_);}
	.st4{clip-path:url(#SVGID_6_);}
	.st5{clip-path:url(#SVGID_8_);}
</style>
<rect class="st0" width="100" height="100"/>
<g>
	<path class="st1" d="M94.8,55.2l-4.2-12.4c0-0.1-0.1-0.3-0.2-0.4c0,0,0,0,0-0.1c-0.1-0.2-0.2-0.3-0.3-0.5L90,41.7
		c-0.1-0.1-0.2-0.2-0.4-0.3c0,0,0,0-0.1-0.1l-39-23.1c-0.8-0.5-1.8-0.5-2.6,0L11.8,40.3c0,0,0,0-0.1,0.1s-0.3,0.2-0.4,0.3l-0.1,0.1
		c-0.1,0.1-0.2,0.2-0.3,0.3l-0.1,0.1c0,0,0,0,0,0.1L5.3,52.6c-0.6,1.2-0.1,2.6,1,3.3l46.3,26c0.4,0.2,0.8,0.3,1.2,0.3
		c0.5,0,0.9-0.1,1.3-0.4l38.5-23.6C94.7,57.5,95.2,56.3,94.8,55.2z M49.2,23.3l34.2,20.4L53.2,62.3L18,42.4L49.2,23.3z M53.9,76.7
		l-43-24.1l3.3-6.7L52,67.4c0.4,0.2,0.8,0.3,1.2,0.3c0.5,0,0.9-0.1,1.3-0.4l32.3-19.9l2.5,7.5L53.9,76.7z"/>
	<path class="st1" d="M44.9,37l5-3.2l5.3,3.6c0.4,0.3,0.9,0.4,1.4,0.4c0.8,0,1.6-0.4,2.1-1.1c0.8-1.1,0.5-2.7-0.7-3.5l-6.6-4.5
		c-0.8-0.6-1.9-0.6-2.7,0l-6.4,4c-1.2,0.7-1.5,2.3-0.8,3.4C42.2,37.4,43.8,37.7,44.9,37z"/>
	<path class="st1" d="M57.9,55c0.8,0,1.6-0.4,2.1-1.1c0.8-1.1,0.5-2.7-0.7-3.5L52.7,46c-0.8-0.5-1.9-0.6-2.7,0l-6.2,3.9
		c-1.2,0.7-1.5,2.3-0.8,3.4c0.7,1.2,2.3,1.5,3.4,0.8l4.9-3l5.3,3.6C57,54.9,57.4,55,57.9,55z"/>
	<path class="st1" d="M55.9,45c0.8,1.1,2.3,1.4,3.5,0.6l4.6-3.2l5.2,3.5c0.4,0.3,0.9,0.4,1.4,0.4c0.8,0,1.6-0.4,2.1-1.1
		c0.8-1.1,0.5-2.7-0.7-3.5l-6.6-4.5c-0.9-0.6-2-0.6-2.8,0l-6,4.2C55.4,42.3,55.1,43.9,55.9,45z"/>
	<path class="st1" d="M45.7,45.3c0.8-1.1,0.5-2.7-0.7-3.5l-6.6-4.5c-0.8-0.5-1.9-0.6-2.7,0l-6.4,4c-1.2,0.7-1.5,2.3-0.8,3.4
		c0.7,1.2,2.3,1.5,3.4,0.8l5-3.1l5.3,3.6c0.4,0.3,0.9,0.4,1.4,0.4C44.4,46.4,45.2,46,45.7,45.3z"/>
</g>
<g>
	<defs>
		<rect id="SVGID_1_" x="55.1" width="44.9" height="32.1"/>
	</defs>
	<clipPath id="SVGID_2_">
		<use xlink:href="#SVGID_1_"  style="overflow:visible;"/>
	</clipPath>
	<g class="st2">
		<path class="st1" d="M144.8,5.2l-4.2-12.4c0-0.1-0.1-0.3-0.2-0.4c0,0,0,0,0-0.1c-0.1-0.2-0.2-0.3-0.3-0.5L140-8.3
			c-0.1-0.1-0.2-0.2-0.4-0.3c0,0,0,0-0.1-0.1l-39-23.1c-0.8-0.5-1.8-0.5-2.6,0L61.8-9.7c0,0,0,0-0.1,0.1c-0.1,0.1-0.3,0.2-0.4,0.3
			l-0.1,0.1C61.1-9.1,61-9,60.9-8.9l-0.1,0.1c0,0,0,0,0,0.1L55.3,2.6c-0.6,1.2-0.1,2.6,1,3.3l46.3,26c0.4,0.2,0.8,0.3,1.2,0.3
			c0.5,0,0.9-0.1,1.3-0.4l38.5-23.6C144.7,7.5,145.2,6.3,144.8,5.2z M99.2-26.7l34.2,20.4l-30.2,18.6L68-7.6L99.2-26.7z M103.9,26.7
			l-43-24.1l3.3-6.7L102,17.4c0.4,0.2,0.8,0.3,1.2,0.3c0.5,0,0.9-0.1,1.3-0.4l32.3-19.9l2.5,7.5L103.9,26.7z"/>
		<path class="st1" d="M94.9-13l5-3.2l5.3,3.6c0.4,0.3,0.9,0.4,1.4,0.4c0.8,0,1.6-0.4,2.1-1.1c0.8-1.1,0.5-2.7-0.7-3.5l-6.6-4.5
			c-0.8-0.6-1.9-0.6-2.7,0l-6.4,4c-1.2,0.7-1.5,2.3-0.8,3.4C92.2-12.6,93.8-12.3,94.9-13z"/>
		<path class="st1" d="M107.9,5c0.8,0,1.6-0.4,2.1-1.1c0.8-1.1,0.5-2.7-0.7-3.5L102.7-4c-0.8-0.5-1.9-0.6-2.7,0l-6.2,3.9
			c-1.2,0.7-1.5,2.3-0.8,3.4c0.7,1.2,2.3,1.5,3.4,0.8l4.9-3l5.3,3.6C107,4.9,107.4,5,107.9,5z"/>
		<path class="st1" d="M105.9-5c0.8,1.1,2.3,1.4,3.5,0.6l4.6-3.2l5.2,3.5c0.4,0.3,0.9,0.4,1.4,0.4c0.8,0,1.6-0.4,2.1-1.1
			c0.8-1.1,0.5-2.7-0.7-3.5l-6.6-4.5c-0.9-0.6-2-0.6-2.8,0l-6,4.2C105.4-7.7,105.1-6.1,105.9-5z"/>
		<path class="st1" d="M95.7-4.7c0.8-1.1,0.5-2.7-0.7-3.5l-6.6-4.5c-0.8-0.5-1.9-0.6-2.7,0l-6.4,4c-1.2,0.7-1.5,2.3-0.8,3.4
			c0.7,1.2,2.3,1.5,3.4,0.8l5-3.1L92.2-4c0.4,0.3,0.9,0.4,1.4,0.4C94.4-3.6,95.2-4,95.7-4.7z"/>
	</g>
</g>
<g>
	<defs>
		<rect id="SVGID_3_" width="44.9" height="32.1"/>
	</defs>
	<clipPath id="SVGID_4_">
		<use xlink:href="#SVGID_3_"  style="overflow:visible;"/>
	</clipPath>
	<g class="st3">
		<path class="st1" d="M44.8,5.2L40.6-7.2c0-0.1-0.1-0.3-0.2-0.4c0,0,0,0,0-0.1c-0.1-0.2-0.2-0.3-0.3-0.5L40-8.3
			c-0.1-0.1-0.2-0.2-0.4-0.3c0,0,0,0-0.1-0.1l-39-23.1c-0.8-0.5-1.8-0.5-2.6,0L-38.2-9.7c0,0,0,0-0.1,0.1c-0.1,0.1-0.3,0.2-0.4,0.3
			l-0.1,0.1C-38.9-9.1-39-9-39.1-8.9l-0.1,0.1c0,0,0,0,0,0.1l-5.5,11.3c-0.6,1.2-0.1,2.6,1,3.3l46.3,26c0.4,0.2,0.8,0.3,1.2,0.3
			c0.5,0,0.9-0.1,1.3-0.4L43.6,8.2C44.7,7.5,45.2,6.3,44.8,5.2z M-0.8-26.7L33.4-6.3L3.2,12.3L-32-7.6L-0.8-26.7z M3.9,26.7
			l-43-24.1l3.3-6.7L2,17.4c0.4,0.2,0.8,0.3,1.2,0.3c0.5,0,0.9-0.1,1.3-0.4L36.8-2.6l2.5,7.5L3.9,26.7z"/>
		<path class="st1" d="M-5.1-13l5-3.2l5.3,3.6c0.4,0.3,0.9,0.4,1.4,0.4c0.8,0,1.6-0.4,2.1-1.1C9.5-14.4,9.2-16,8-16.8l-6.6-4.5
			c-0.8-0.6-1.9-0.6-2.7,0l-6.4,4c-1.2,0.7-1.5,2.3-0.8,3.4C-7.8-12.6-6.2-12.3-5.1-13z"/>
		<path class="st1" d="M7.9,5C8.7,5,9.5,4.6,10,3.9c0.8-1.1,0.5-2.7-0.7-3.5L2.7-4C1.9-4.5,0.8-4.6,0-4l-6.2,3.9
			C-7.4,0.6-7.7,2.2-7,3.3c0.7,1.2,2.3,1.5,3.4,0.8l4.9-3l5.3,3.6C7,4.9,7.4,5,7.9,5z"/>
		<path class="st1" d="M5.9-5c0.8,1.1,2.3,1.4,3.5,0.6L14-7.6l5.2,3.5c0.4,0.3,0.9,0.4,1.4,0.4c0.8,0,1.6-0.4,2.1-1.1
			c0.8-1.1,0.5-2.7-0.7-3.5l-6.6-4.5c-0.9-0.6-2-0.6-2.8,0l-6,4.2C5.4-7.7,5.1-6.1,5.9-5z"/>
		<path class="st1" d="M-4.3-4.7C-3.5-5.8-3.8-7.4-5-8.2l-6.6-4.5c-0.8-0.5-1.9-0.6-2.7,0l-6.4,4c-1.2,0.7-1.5,2.3-0.8,3.4
			c0.7,1.2,2.3,1.5,3.4,0.8l5-3.1L-7.8-4c0.4,0.3,0.9,0.4,1.4,0.4C-5.6-3.6-4.8-4-4.3-4.7z"/>
	</g>
</g>
<g>
	<defs>
		<rect id="SVGID_5_" x="55.1" y="67.9" width="44.9" height="32.1"/>
	</defs>
	<clipPath id="SVGID_6_">
		<use xlink:href="#SVGID_5_"  style="overflow:visible;"/>
	</clipPath>
	<g class="st4">
		<path class="st1" d="M144.8,105.2l-4.2-12.4c0-0.1-0.1-0.3-0.2-0.4c0,0,0,0,0-0.1c-0.1-0.2-0.2-0.3-0.3-0.5l-0.1-0.1
			c-0.1-0.1-0.2-0.2-0.4-0.3c0,0,0,0-0.1-0.1l-39-23.1c-0.8-0.5-1.8-0.5-2.6,0L61.8,90.3c0,0,0,0-0.1,0.1c-0.1,0.1-0.3,0.2-0.4,0.3
			l-0.1,0.1c-0.1,0.1-0.2,0.2-0.3,0.3l-0.1,0.1c0,0,0,0,0,0.1l-5.5,11.3c-0.6,1.2-0.1,2.6,1,3.3l46.3,26c0.4,0.2,0.8,0.3,1.2,0.3
			c0.5,0,0.9-0.1,1.3-0.4l38.5-23.6C144.7,107.5,145.2,106.3,144.8,105.2z M99.2,73.3l34.2,20.4l-30.2,18.6L68,92.4L99.2,73.3z
			 M103.9,126.7l-43-24.1l3.3-6.7l37.8,21.5c0.4,0.2,0.8,0.3,1.2,0.3c0.5,0,0.9-0.1,1.3-0.4l32.3-19.9l2.5,7.5L103.9,126.7z"/>
		<path class="st1" d="M94.9,87l5-3.2l5.3,3.6c0.4,0.3,0.9,0.4,1.4,0.4c0.8,0,1.6-0.4,2.1-1.1c0.8-1.1,0.5-2.7-0.7-3.5l-6.6-4.5
			c-0.8-0.6-1.9-0.6-2.7,0l-6.4,4c-1.2,0.7-1.5,2.3-0.8,3.4C92.2,87.4,93.8,87.7,94.9,87z"/>
		<path class="st1" d="M107.9,105c0.8,0,1.6-0.4,2.1-1.1c0.8-1.1,0.5-2.7-0.7-3.5l-6.6-4.4c-0.8-0.5-1.9-0.6-2.7,0l-6.2,3.9
			c-1.2,0.7-1.5,2.3-0.8,3.4c0.7,1.2,2.3,1.5,3.4,0.8l4.9-3l5.3,3.6C107,104.9,107.4,105,107.9,105z"/>
		<path class="st1" d="M105.9,95c0.8,1.1,2.3,1.4,3.5,0.6l4.6-3.2l5.2,3.5c0.4,0.3,0.9,0.4,1.4,0.4c0.8,0,1.6-0.4,2.1-1.1
			c0.8-1.1,0.5-2.7-0.7-3.5l-6.6-4.5c-0.9-0.6-2-0.6-2.8,0l-6,4.2C105.4,92.3,105.1,93.9,105.9,95z"/>
		<path class="st1" d="M95.7,95.3c0.8-1.1,0.5-2.7-0.7-3.5l-6.6-4.5c-0.8-0.5-1.9-0.6-2.7,0l-6.4,4c-1.2,0.7-1.5,2.3-0.8,3.4
			c0.7,1.2,2.3,1.5,3.4,0.8l5-3.1l5.3,3.6c0.4,0.3,0.9,0.4,1.4,0.4C94.4,96.4,95.2,96,95.7,95.3z"/>
	</g>
</g>
<g>
	<defs>
		<rect id="SVGID_7_" y="67.9" width="44.9" height="32.1"/>
	</defs>
	<clipPath id="SVGID_8_">
		<use xlink:href="#SVGID_7_"  style="overflow:visible;"/>
	</clipPath>
	<g class="st5">
		<path class="st1" d="M44.8,105.2l-4.2-12.4c0-0.1-0.1-0.3-0.2-0.4c0,0,0,0,0-0.1c-0.1-0.2-0.2-0.3-0.3-0.5L40,91.7
			c-0.1-0.1-0.2-0.2-0.4-0.3c0,0,0,0-0.1-0.1l-39-23.1c-0.8-0.5-1.8-0.5-2.6,0l-36.1,22.1c0,0,0,0-0.1,0.1c-0.1,0.1-0.3,0.2-0.4,0.3
			l-0.1,0.1c-0.1,0.1-0.2,0.2-0.3,0.3l-0.1,0.1c0,0,0,0,0,0.1l-5.5,11.3c-0.6,1.2-0.1,2.6,1,3.3l46.3,26c0.4,0.2,0.8,0.3,1.2,0.3
			c0.5,0,0.9-0.1,1.3-0.4l38.5-23.6C44.7,107.5,45.2,106.3,44.8,105.2z M-0.8,73.3l34.2,20.4L3.2,112.3L-32,92.4L-0.8,73.3z
			 M3.9,126.7l-43-24.1l3.3-6.7L2,117.4c0.4,0.2,0.8,0.3,1.2,0.3c0.5,0,0.9-0.1,1.3-0.4l32.3-19.9l2.5,7.5L3.9,126.7z"/>
		<path class="st1" d="M-5.1,87l5-3.2l5.3,3.6c0.4,0.3,0.9,0.4,1.4,0.4c0.8,0,1.6-0.4,2.1-1.1C9.5,85.6,9.2,84,8,83.2l-6.6-4.5
			c-0.8-0.6-1.9-0.6-2.7,0l-6.4,4c-1.2,0.7-1.5,2.3-0.8,3.4C-7.8,87.4-6.2,87.7-5.1,87z"/>
		<path class="st1" d="M7.9,105c0.8,0,1.6-0.4,2.1-1.1c0.8-1.1,0.5-2.7-0.7-3.5L2.7,96c-0.8-0.5-1.9-0.6-2.7,0l-6.2,3.9
			c-1.2,0.7-1.5,2.3-0.8,3.4c0.7,1.2,2.3,1.5,3.4,0.8l4.9-3l5.3,3.6C7,104.9,7.4,105,7.9,105z"/>
		<path class="st1" d="M5.9,95c0.8,1.1,2.3,1.4,3.5,0.6l4.6-3.2l5.2,3.5c0.4,0.3,0.9,0.4,1.4,0.4c0.8,0,1.6-0.4,2.1-1.1
			c0.8-1.1,0.5-2.7-0.7-3.5l-6.6-4.5c-0.9-0.6-2-0.6-2.8,0l-6,4.2C5.4,92.3,5.1,93.9,5.9,95z"/>
		<path class="st1" d="M-4.3,95.3c0.8-1.1,0.5-2.7-0.7-3.5l-6.6-4.5c-0.8-0.5-1.9-0.6-2.7,0l-6.4,4c-1.2,0.7-1.5,2.3-0.8,3.4
			c0.7,1.2,2.3,1.5,3.4,0.8l5-3.1l5.3,3.6c0.4,0.3,0.9,0.4,1.4,0.4C-5.6,96.4-4.8,96-4.3,95.3z"/>
	</g>
</g>
</svg>
